<svg xmlns="http://www.w3.org/2000/svg" viewBox="0 0 512 512">
  <defs>
    <radialGradient id="bg" cx="0.35" cy="0.3" r="0.9">
      <stop offset="0" stop-color="#3A3470"/><stop offset="1" stop-color="#14112B"/>
    </radialGradient>
    <linearGradient id="panel" x1="0" y1="0" x2="1" y2="1">
      <stop offset="0" stop-color="#5FD3FF"/><stop offset="1" stop-color="#2747A8"/>
    </linearGradient>
    <radialGradient id="body" cx="0.38" cy="0.32" r="0.75">
      <stop offset="0" stop-color="#B9AEFF"/><stop offset="0.55" stop-color="#6C5CE7"/><stop offset="1" stop-color="#3B2F9E"/>
    </radialGradient>
  </defs>
  <rect width="512" height="512" fill="url(#bg)"/>
  <g fill="#FFFFFF" opacity="0.7">
    <circle cx="86" cy="98" r="5"/><circle cx="420" cy="80" r="4"/><circle cx="446" cy="402" r="5"/><circle cx="70" cy="420" r="4"/><circle cx="380" cy="150" r="3"/>
  </g>
  <!-- anneau -->
  <ellipse cx="256" cy="270" rx="196" ry="58" fill="none" stroke="#C9C2FF" stroke-width="14" opacity="0.55" transform="rotate(-12 256 270)"/>
  <!-- panneaux solaires -->
  <g stroke="#1E1B3A" stroke-width="8" stroke-linejoin="round">
    <rect x="38" y="214" width="112" height="80" rx="10" fill="url(#panel)"/>
    <rect x="362" y="214" width="112" height="80" rx="10" fill="url(#panel)"/>
    <line x1="150" y1="254" x2="178" y2="254"/><line x1="334" y1="254" x2="362" y2="254"/>
  </g>
  <g stroke="#1E1B3A" stroke-width="4" opacity="0.5">
    <line x1="75" y1="214" x2="75" y2="294"/><line x1="113" y1="214" x2="113" y2="294"/>
    <line x1="399" y1="214" x2="399" y2="294"/><line x1="437" y1="214" x2="437" y2="294"/>
  </g>
  <!-- antenne -->
  <line x1="256" y1="160" x2="256" y2="104" stroke="#1E1B3A" stroke-width="10" stroke-linecap="round"/>
  <circle cx="256" cy="96" r="16" fill="#FF9F1C" stroke="#1E1B3A" stroke-width="7"/>
  <!-- corps -->
  <circle cx="256" cy="256" r="98" fill="url(#body)" stroke="#1E1B3A" stroke-width="10"/>
  <!-- visiere et yeux -->
  <rect x="186" y="222" width="140" height="62" rx="31" fill="#14112B"/>
  <circle cx="228" cy="253" r="15" fill="#5FD3FF"/><circle cx="284" cy="253" r="15" fill="#5FD3FF"/>
  <circle cx="233" cy="248" r="5" fill="#FFFFFF"/><circle cx="289" cy="248" r="5" fill="#FFFFFF"/>
  <path d="M232 304 Q256 320 280 304" fill="none" stroke="#1E1B3A" stroke-width="8" stroke-linecap="round"/>
</svg>
